<svg xmlns="http://www.w3.org/2000/svg" version="1.0" viewBox="0 0 400 400"><g stroke-width="0"><path d="M0 200v200h400V0H0v200zm34.5-30.5c22.5.8 22.4.8 26.3 6.7 2.9 4.3 3.2 5.3 2.3 8.1-.5 1.8-1.2 5-1.6 7.2-.4 3-1.4 4.6-3.5 6-2.3 1.5-2.6 2.2-1.7 3.3.6.8 2 1.8 3.1 2.2 1.3.4 2.4 2.2 3 5 1.7 6.9 3.6 6.3 3.6-1.2 0-3.5.6-8.6 1.4-11.4 1.6-6.1 6.7-16 10.4-20.2l2.7-3 15.7.5 15.8.6-.6 8.1c-.7 9.1.5 17.3 3.9 25.3 2.1 5.1 2.3 5.3 6.3 5.3h4.2l-.5-11.3c-.2-6.1-.6-11.8-.8-12.5-.3-.6-1.6-1.2-3-1.2-2.9 0-2.9-.2.2-8.8l1.6-4.2h23.1l23.1.1 3.4 2.9c3.6 3.1 5.1 3.1 5.1-.1 0-1.8.9-1.9 22-1.9h22.1l5.3 3.4 5.3 3.4 5.1-3.9 5.1-3.9h13.8c10.6 0 14.3.3 16 1.5 1.1.8 3.3 1.9 4.7 2.4 2.4 1 2.5.9 1.9-1.9l-.5-3h20.1l7.2 6.1c7.3 6 7.3 6 8.5 3.7.7-1.3 1.6-4.1 1.9-6.4l.7-4.1 30.1-1.7c16.6-.9 32.2-1.8 34.6-2 3.6-.3 4.8 0 6.6 1.9 3.7 4.1 7.7 12.4 7.1 14.8-1 4.2-13.5 16.1-24.8 23.7-3.7 2.5-6.8 4.8-6.8 5.2 0 .5 2.5.8 5.5.8 5 0 5.5-.2 6.1-2.5.6-2.5.8-2.5 10.5-2.5 7.3 0 9.9.3 9.9 1.2 0 2.2-5.6 11.1-10 16.1l-4.2 4.8-7.2-.6c-3.9-.2-14.1-.9-22.6-1.5-8.5-.6-16.9-1.3-18.7-1.6l-3.2-.5 4-5.6c2.1-3.1 3.9-6.1 3.9-6.7 0-.6 4.4-4 9.7-7.6 9.9-6.6 26.3-21.4 25.1-22.6-.4-.3-3.2-.3-6.3.1-5.2.6-5.5.8-4.9 3.1l.6 2.4h-10c-9.8 0-10 0-10.6-2.5-.5-1.8-1.3-2.5-3-2.5-1.9 0-3.2 1.2-5.5 5.2-1.6 2.9-4.1 6.5-5.4 7.9-1.9 2-4.7 10-4.7 13.4 0 .3 1.1.5 2.5.5s2.5.5 2.5 1.1c0 1.5-5.8 11.7-7.1 12.5-1.2.7-28.8.6-30-.2-.4-.2.7-3.6 2.4-7.4 3-6.5 3.4-7 6.4-7 3.4 0 4-1 4.3-6.5.3-5 .2-5.2-6.1-12-4.6-4.8-6.8-6.5-8.8-6.5h-2.6v11.3c-.1 6.1-.6 13-1.3 15.2-1.1 3.6-2 4.3-9 7.8l-7.7 3.7h-26.8l-4.3-3.5c-2.3-1.9-4.7-3.5-5.3-3.5-.6 0-3.2 1.4-5.8 3l-4.7 3H178v-5l-4.2 2.9-4.3 2.9-31.5.7-31.5.7-2.8-4.5c-4.9-7.7-5.7-8.2-11.6-7.9l-5.2.4.6 3.2c.4 1.7 1.3 4.4 2.1 6 .8 1.6 1.3 3.1 1.1 3.2-.1.2-5 .6-10.8 1l-10.5.7-2.6-3.3-2.6-3.4-1.5 3.6c-1.7 4.1-1.4 4.1-28.7 5.8l-15.5 1-2.5-2.8c-6.8-7.8-9.4-11.8-8.4-13.3.3-.6 1.5-.8 2.6-.6 1.7.5 1.9.2 1.3-1.6-3.1-9.9-3.6-12.7-3.1-18.7.2-3.6.8-7.3 1.1-8.3.6-1.3.2-1.7-1.7-1.7-1.4 0-2.7-.3-3.1-.6-.8-.8 2.2-6.6 6.2-12.2 2.4-3.3 3.6-4.1 5.4-3.8 1.2.3 9.4.7 18.2 1.1z"/><path d="M29.7 187.2c-1.6 5.7-1.1 6.5 4.6 7.1 2.8.3 5.5.2 5.9-.1.3-.4 1-2.4 1.3-4.5.7-3.6.6-3.7-2.3-3.7-1.6 0-4.3-.3-5.9-.6-2.6-.5-3.1-.2-3.6 1.8zm116 1.5c-.9.8-.9 11.6-.1 17.7l.7 4.6H161v-23h-7.3c-4.1 0-7.7.3-8 .7zm35.3 10.8c0 7 .4 11.5 1 11.5s1-4.5 1-11.5-.4-11.5-1-11.5-1 4.5-1 11.5zm22-8v3.5h12.7l-.1-3.5-.1-3.5H203v3.5zm49 5.7c0 5.1-.3 10.2-.6 11.4-.5 1.9 0 2.2 6.2 2.8 4.1.4 7.1.3 7.7-.3.5-.5 1-5.9 1.1-11.8l.1-10.8-7.2-.3-7.3-.3v9.3zm-163.9-2.5c-1.8 6.3-1.5 7.3 2 7.3 2.6 0 3-.3 2.4-1.8-.4-.9-.9-3.2-1.2-5-.8-4.7-2-4.8-3.2-.5zm142.4 4.2c-.3.5-.1 1.2.5 1.6.5.3 1-.1 1-.9 0-1.8-.6-2.1-1.5-.7zm-27.5 8.6v3.5h11.8l.4-3.5.4-3.5H203v3.5zm-171.3-1.8c-1.6.2-2.7.7-2.5 1.1.2.4 1 2.4 1.8 4.4l1.4 3.8 5.5-.7c3.1-.3 5.7-.7 5.9-.8.1-.1-.4-1.9-1.1-4.1-1.2-3.5-1.8-3.9-4.8-4-1.9-.1-4.7.1-6.2.3z"/></g><path fill="#333" d="M31.3 169.7c1.5.2 3.7.2 5 0 1.2-.2 0-.4-2.8-.4-2.7 0-3.8.2-2.2.4zm334 0c1.5.2 3.7.2 5 0 1.2-.2 0-.4-2.8-.4-2.7 0-3.8.2-2.2.4zm-17.5 1c.7.3 1.6.2 1.9-.1.4-.3-.2-.6-1.3-.5-1.1 0-1.4.3-.6.6zm-269.4 3.5-1.9 2.3 2.3-1.9c2.1-1.8 2.7-2.6 1.9-2.6-.2 0-1.2 1-2.3 2.2zm6.4-1.5c.7.3 1.6.2 1.9-.1.4-.3-.2-.6-1.3-.5-1.1 0-1.4.3-.6.6zm24 1c.6.2 1.8.2 2.5 0 .6-.3.1-.5-1.3-.5-1.4 0-1.9.2-1.2.5zm172.9 0c1.8.2 5 .2 7 0 2.1-.2.7-.4-3.2-.4-3.8 0-5.5.2-3.8.4zm-119.4 1c1.5.2 3.7.2 5 0 1.2-.2 0-.4-2.8-.4-2.7 0-3.8.2-2.2.4zm-127.5 11c.6.2 1.8.2 2.5 0 .6-.3.1-.5-1.3-.5-1.4 0-1.9.2-1.2.5zm328 0c.6.2 1.8.2 2.5 0 .6-.3.1-.5-1.3-.5-1.4 0-1.9.2-1.2.5zM124.5 188c.3.5.8 1 1.1 1 .2 0 .4-.5.4-1 0-.6-.5-1-1.1-1-.5 0-.7.4-.4 1zm126.7 2.5c0 1.6.2 2.2.5 1.2.2-.9.2-2.3 0-3-.3-.6-.5.1-.5 1.8zm-161.7-.6c-.3.5-.1 1.2.5 1.6.5.3 1-.1 1-.9 0-1.8-.6-2.1-1.5-.7zm125.7 1.1c0 1.4.2 1.9.5 1.2.2-.6.2-1.8 0-2.5-.3-.6-.5-.1-.5 1.3zm-186.8 2c.1 1.1 1.4 1.5 4.4 1.6l4.2.1-3.9-.4c-2.2-.2-4.2-.9-4.4-1.6-.2-.7-.3-.5-.3.3zm151.9 4.5c0 3.3.2 4.5.4 2.7.2-1.8.2-4.5 0-6s-.4 0-.4 3.3zm206.6-1.8-2.4 2.8 2.8-2.4c1.5-1.4 2.7-2.6 2.7-2.8 0-.8-.8-.1-3.1 2.4zm-58 1c-1.3 1.6-1.2 1.7.4.4 1.6-1.3 2.1-2.1 1.3-2.1-.2 0-1 .8-1.7 1.7zm-77.7 8.3c0 1.9.2 2.7.5 1.7.2-.9.2-2.5 0-3.5-.3-.9-.5-.1-.5 1.8zm52.9-.4c0 1.1.3 1.4.6.6.3-.7.2-1.6-.1-1.9-.3-.4-.6.2-.5 1.3zm-273.8 1.1c.9.2 2.3.2 3 0 .6-.3-.1-.5-1.8-.5-1.6 0-2.2.2-1.2.5zm184.8 2-.1 3.2-6.2.4-6.3.3 6.3.2c6.7.2 7.8-.5 6.9-5-.3-1.8-.5-1.6-.6.9zm51.1-.7c0 1.4.2 1.9.5 1.2.2-.6.2-1.8 0-2.5-.3-.6-.5-.1-.5 1.3zm127.6 3.7c.7.3 1.6.2 1.9-.1.4-.3-.2-.6-1.3-.5-1.1 0-1.4.3-.6.6zm-244 1c2.3.2 5.9.2 8 0 2-.2.1-.4-4.3-.4-4.4 0-6.1.2-3.7.4zm103 0c1.2.2 3.2.2 4.5 0 1.2-.2.2-.4-2.3-.4s-3.5.2-2.2.4zm-163.5 2c1.5.2 3.7.2 5 0 1.2-.2 0-.4-2.8-.4-2.7 0-3.8.2-2.2.4zm-80.5 2c.7.3 1.6.2 1.9-.1.4-.3-.2-.6-1.3-.5-1.1 0-1.4.3-.6.6zm166.1 5c-1.3 1.6-1.2 1.7.4.4.9-.7 1.7-1.5 1.7-1.7 0-.8-.8-.3-2.1 1.3zm-8.6 4c.9.2 2.3.2 3 0 .6-.3-.1-.5-1.8-.5-1.6 0-2.2.2-1.2.5zm-36.5 1c.6.2 1.8.2 2.5 0 .6-.3.1-.5-1.3-.5-1.4 0-1.9.2-1.2.5zm167.5 1c1.5.2 3.7.2 5 0 1.2-.2 0-.4-2.8-.4-2.7 0-3.8.2-2.2.4zM16 229.5c1.3 1.4 2.6 2.5 2.8 2.5.3 0-.5-1.1-1.8-2.5s-2.6-2.5-2.8-2.5c-.3 0 .5 1.1 1.8 2.5zm20.8 1.2c1.2.2 3 .2 4 0 .9-.3-.1-.5-2.3-.4-2.2 0-3 .2-1.7.4zm323 0c1.2.2 3 .2 4 0 .9-.3-.1-.5-2.3-.4-2.2 0-3 .2-1.7.4z"/><path fill="#999" d="M40.8 170.7c1.2.2 3 .2 4 0 .9-.3-.1-.5-2.3-.4-2.2 0-3 .2-1.7.4zm317 0c.6.2 1.8.2 2.5 0 .6-.3.1-.5-1.3-.5-1.4 0-1.9.2-1.2.5zm-22 1c.6.2 1.8.2 2.5 0 .6-.3.1-.5-1.3-.5-1.4 0-1.9.2-1.2.5zm-206 3c1.2.2 3.2.2 4.5 0 1.2-.2.2-.4-2.3-.4s-3.5.2-2.2.4zm136.5 0c.9.2 2.3.2 3 0 .6-.3-.1-.5-1.8-.5-1.6 0-2.2.2-1.2.5zm-156.1 10.8c0 1.6.2 2.2.5 1.2.2-.9.2-2.3 0-3-.3-.6-.5.1-.5 1.8zm73.2 13.5c0 6.3.1 8.9.3 5.7.2-3.1.2-8.3 0-11.5-.2-3.1-.3-.5-.3 5.8zm162.9-8.3c1.5.2 3.9.2 5.5 0 1.5-.2.2-.4-2.8-.4s-4.3.2-2.7.4zm-79 6.8c0 3.8.2 5.3.4 3.2.2-2 .2-5.2 0-7-.2-1.7-.4-.1-.4 3.8zm-179 5.2c.9.2 2.5.2 3.5 0 .9-.3.1-.5-1.8-.5-1.9 0-2.7.2-1.7.5zm161.8 7.9c0 1.1.3 1.4.6.6.3-.7.2-1.6-.1-1.9-.3-.4-.6.2-.5 1.3zm139.7.1c.7.3 1.6.2 1.9-.1.4-.3-.2-.6-1.3-.5-1.1 0-1.4.3-.6.6zm-269 2c1.2.2 3.2.2 4.5 0 1.2-.2.2-.4-2.3-.4s-3.5.2-2.2.4zm-80 2c.7.3 1.6.2 1.9-.1.4-.3-.2-.6-1.3-.5-1.1 0-1.4.3-.6.6zM12 224.4c0 .2.8 1 1.8 1.7 1.5 1.3 1.6 1.2.3-.4s-2.1-2.1-2.1-1.3zm138.3.3c1.5.2 3.9.2 5.5 0 1.5-.2.2-.4-2.8-.4s-4.3.2-2.7.4zm94 0c1.5.2 3.9.2 5.5 0 1.5-.2.2-.4-2.8-.4s-4.3.2-2.7.4zm-131.5 1c.6.2 1.8.2 2.5 0 .6-.3.1-.5-1.3-.5-1.4 0-1.9.2-1.2.5zm269.6 4.5-1.9 2.3 2.3-1.9c2.1-1.8 2.7-2.6 1.9-2.6-.2 0-1.2 1-2.3 2.2zm-337.6-.5c.6.2 1.8.2 2.5 0 .6-.3.1-.5-1.3-.5-1.4 0-1.9.2-1.2.5zm310 0c.7.3 1.6.2 1.9-.1.4-.3-.2-.6-1.3-.5-1.1 0-1.4.3-.6.6z"/><path fill="#FFF" d="M11.4 172.7c-1.6 2.1-3.7 5.5-4.6 7.5L5.1 184h3.1c2.8 0 3 .2 2.3 2.7-2.6 9.8-2.4 14.7.9 24.2 2 5.5 2.1 5.1-.9 5.1-1.4 0-2.5.4-2.5.9 0 .9 6.9 10 10 13.2 1.6 1.7.1 1.7 36.6-1.7 5.8-.5 6.2-.7 7.8-4.2l1.8-3.6 3.1 3.7 3.2 3.7 9.8-.7c6.5-.4 9.6-1 9.3-1.7-1.5-3.6-3.9-11.6-3.5-11.9.2-.3 2.9-.7 6-1.1l5.7-.6 5.1 7.1c3.6 4.8 5.7 6.9 6.7 6.5.8-.3 14.8-.9 31.2-1.2l29.7-.7 3.5-2.9c4.4-3.5 5-3.5 5 .2v3h20.8c11.4 0 21.2-.4 21.8-.9.5-.5 3-2.1 5.7-3.5 5.2-2.9 6.4-2.7 10.6 1.8 2.4 2.6 2.6 2.6 16.8 2.6h14.4l6.9-3.7 7-3.6 2.2-7c1.7-5.6 2-8.6 1.5-15.3l-.5-8.4h2.8c2.2 0 4.3 1.6 9.9 7.7 7.5 8.1 7.4 7.8 4.9 16-.8 2.7-1.5 3.3-3.8 3.3-2.5 0-3.2.7-5.8 6-1.6 3.4-2.6 6.2-2.3 6.4.3.2 6.9.5 14.5.7l13.9.4 3.4-5.5c1.8-3 3.3-5.8 3.3-6.3 0-.4-1.1-.7-2.5-.7s-2.5-.4-2.5-1c0-3.7 3.4-12.6 6.5-16.5 2-2.6 4.3-6.1 5.1-7.6 1.2-2.4 2.1-2.9 4.9-2.9 2.8 0 3.5.4 3.5 2 0 1.9.7 2 9.6 2h9.6l-.6-2.5c-.6-2.5-.6-2.5 6.4-2.5 6.4 0 7 .2 6.1 1.7-1.9 3.7-14.9 15.2-23.8 21.1-5.1 3.5-10 7.5-10.9 9-.9 1.5-2.9 4.6-4.4 6.8l-2.8 4.1 12.7.7c6.9.4 18 1.3 24.6 2l12 1.3 2.9-2.6c1.6-1.4 5.1-6 7.7-10.1l4.9-7.5-9.2-.8c-5.7-.5-9.4-.5-9.6.1-1.2 3.6-2.8 4.3-9.2 4l-6.5-.3 7.2-4.9c9.3-6.2 17.5-13.4 23-20.1l4.4-5.3-3.6-5.8c-6.3-10.6-4.4-9.8-20.7-8.5-7.9.7-21.7 1.4-30.8 1.7-23.8.7-22.3.3-24.5 7.5-1 3.3-2.1 6.2-2.5 6.4-.3.2-3.9-2.3-8-5.6l-7.4-5.9H279l1.2 2.5c1.7 3.7.5 3.9-4.8 1.1-4.6-2.4-5.8-2.6-19-2.6h-14.2l-4.2 3.5c-2.3 1.9-4.6 3.5-5.1 3.5-.4 0-3.1-1.4-5.9-3l-5.2-3-21.6.2c-21.5.3-21.6.3-22.2 2.6l-.5 2.2-4-2.7-4-2.8-23.1-.3-23.1-.4-.7 2.4c-2.6 8.5-2.6 8.8.4 8.8h2.8l-.1 10.2c0 5.7.3 11.8.7 13.5l.8 3.3h-10l-2-4.8c-4.3-10-5.5-16.2-4.9-25.3l.6-8.6-9.1-.7c-5-.3-11.9-.6-15.3-.6h-6.2l-4 5.8c-6.6 9.4-9.3 17.1-9.3 26.9 0 7.3-.2 8.4-1.6 8.1-.9-.2-2.4-2.3-3.4-4.8-1-2.8-2.9-5.3-4.8-6.5-1.7-1.1-3.1-2.3-3.2-2.7 0-.4 1.4-1.5 3-2.5 1.6-.9 3-2.5 3-3.5s.8-4.2 1.9-7.1c1.8-5.3 1.8-5.3-.3-8-1.2-1.4-2.8-3.5-3.6-4.7-1.4-1.9-3.2-2.2-20.5-3.5-24.8-1.9-22.8-2.1-26.1 2.2zm31 15.5c-.4 1.8-.8 4.1-.8 5 0 1.5-1 1.8-6.8 1.8-6.5 0-6.8-.1-6.8-2.4 0-1.4.4-3.6 1-5 .9-2.4 1.4-2.6 7.6-2.6h6.6l-.8 3.2zm49.9 9 .7 5.8h-3.5c-3 0-3.5-.3-3.5-2.4 0-2 1.6-7.5 3.6-12.6.8-2 1.8 1.5 2.7 9.2zm69.3 2.3.1 12.5h-16.4l-.7-4.6c-.8-5.9-.8-16.7 0-18.8.5-1.3 2.3-1.6 8.8-1.6h8.1l.1 12.5zm22.4 0c0 10-.3 12.5-1.4 12.5-2 0-2.6-3.2-2.6-14.8 0-9.5.1-10.2 2-10.2s2 .7 2 12.5zm32-8v4.5h-13v-9h13v4.5zm51.6-1.9c.8 3-.1 19.1-1.1 21.7-.7 1.6-1.6 1.7-8.4 1.1-4.2-.4-7.6-.7-7.7-.8 0 0 .2-5.6.4-12.4l.4-12.2h7.9c7.6 0 7.9.1 8.5 2.6zM232 200.1c0 1.8-.2 1.9-1.5.9-1.5-1.2-1.2-3 .6-3 .5 0 .9 1 .9 2.1zm-16 7.4v4.5h-13v-9h13v4.5zM43.2 209c1 2.5 1.8 4.8 1.8 5.2 0 .5-2.9.8-6.6.8-6.5 0-6.5 0-8-3.5-2.3-5.5-1.9-6.3 2.9-6.8 7.7-.7 8.1-.5 9.9 4.3z"/><path fill="#CCC" d="M361.8 170.7c.7.3 1.6.2 1.9-.1.4-.3-.2-.6-1.3-.5-1.1 0-1.4.3-.6.6zm-308.8.7c0 .2 1.1.6 2.5.8 1.3.3 2.2.1 1.9-.3-.5-.9-4.4-1.3-4.4-.5zm288.3.3c1.5.2 3.7.2 5 0 1.2-.2 0-.4-2.8-.4-2.7 0-3.8.2-2.2.4zm-22.5 1c.7.3 1.6.2 1.9-.1.4-.3-.2-.6-1.3-.5-1.1 0-1.4.3-.6.6zm-194 2c.6.2 1.8.2 2.5 0 .6-.3.1-.5-1.3-.5-1.4 0-1.9.2-1.2.5zm43 1c.7.3 1.6.2 1.9-.1.4-.3-.2-.6-1.3-.5-1.1 0-1.4.3-.6.6zm10.9 0c-.3.5 5.9.7 13.6.5 26.5-.4 29.2-.8 8-1-11.6-.1-21.4.1-21.6.5zm-68.5 5.3c0 1.4.2 1.9.5 1.2.2-.6.2-1.8 0-2.5-.3-.6-.5-.1-.5 1.3zm11.1 5.7c.9.2 2.5.2 3.5 0 .9-.3.1-.5-1.8-.5-1.9 0-2.7.2-1.7.5zm166 0c.9.2 2.5.2 3.5 0 .9-.3.1-.5-1.8-.5-1.9 0-2.7.2-1.7.5zm83.6 2c-1.3 1.6-1.2 1.7.4.4 1.6-1.3 2.1-2.1 1.3-2.1-.2 0-1 .8-1.7 1.7zM110.2 191c0 1.9.2 2.7.5 1.7.2-.9.2-2.5 0-3.5-.3-.9-.5-.1-.5 1.8zm34.2 6.5c0 4.9.1 7.1.3 4.8.2-2.3.2-6.4 0-9-.2-2.6-.3-.8-.3 4.2zm-19.2-5c0 1.6.2 2.2.5 1.2.2-.9.2-2.3 0-3-.3-.6-.5.1-.5 1.8zm264.7-.8c-1.3 1.6-1.2 1.7.4.4 1.6-1.3 2.1-2.1 1.3-2.1-.2 0-1 .8-1.7 1.7zM91.2 193c0 1.4.2 1.9.5 1.2.2-.6.2-1.8 0-2.5-.3-.6-.5-.1-.5 1.3zm207.8 1.4c0 .2.8 1 1.8 1.7 1.5 1.3 1.6 1.2.3-.4s-2.1-2.1-2.1-1.3zm84.9 3.3c-1.3 1.6-1.2 1.7.4.4.9-.7 1.7-1.5 1.7-1.7 0-.8-.8-.3-2.1 1.3zm-23.5 1.5-1.9 2.3 2.3-1.9c1.2-1.1 2.2-2.1 2.2-2.3 0-.8-.8-.2-2.6 1.9zm-305.9-.1c-.4.6-.5 1.2-.2 1.5.2.3.7-.2 1-1.1.7-1.7.1-2-.8-.4zm11.8 6.4c0 3.3.2 4.5.4 2.7.2-1.8.2-4.5 0-6s-.4 0-.4 3.3zm58.9-2.5c0 1.4.2 1.9.5 1.2.2-.6.2-1.8 0-2.5-.3-.6-.5-.1-.5 1.3zm82.1.7c.9.2 2.3.2 3 0 .6-.3-.1-.5-1.8-.5-1.6 0-2.2.2-1.2.5zm5.5 0c.6.2 1.8.2 2.5 0 .6-.3.1-.5-1.3-.5-1.4 0-1.9.2-1.2.5zm-175 1c.7.3 1.6.2 1.9-.1.4-.3-.2-.6-1.3-.5-1.1 0-1.4.3-.6.6zm142.3 2.9c0 1.1.3 1.4.6.6.3-.7.2-1.6-.1-1.9-.3-.4-.6.2-.5 1.3zm206.7 3.1c.7.3 1.6.2 1.9-.1.4-.3-.2-.6-1.3-.5-1.1 0-1.4.3-.6.6zm-292 2c.6.2 1.8.2 2.5 0 .6-.3.1-.5-1.3-.5-1.4 0-1.9.2-1.2.5zm166.5 0c.9.2 2.5.2 3.5 0 .9-.3.1-.5-1.8-.5-1.9 0-2.7.2-1.7.5zm62 1c.9.2 2.5.2 3.5 0 .9-.3.1-.5-1.8-.5-1.9 0-2.7.2-1.7.5zm-187 11c2 .2 5.4.2 7.5 0 2-.2.3-.4-3.8-.4s-5.8.2-3.7.4zm120 0c2 .2 5.4.2 7.5 0 2-.2.3-.4-3.8-.4s-5.8.2-3.7.4zm-200 4c.9.2 2.3.2 3 0 .6-.3-.1-.5-1.8-.5-1.6 0-2.2.2-1.2.5zm283.5 0c1.2.2 3.2.2 4.5 0 1.2-.2.2-.4-2.3-.4s-3.5.2-2.2.4z"/><path fill="#666" d="M47.3 170.7c.9.2 2.3.2 3 0 .6-.3-.1-.5-1.8-.5-1.6 0-2.2.2-1.2.5zm303.5 0c.6.2 1.8.2 2.5 0 .6-.3.1-.5-1.3-.5-1.4 0-1.9.2-1.2.5zm-246 3c.6.2 1.8.2 2.5 0 .6-.3.1-.5-1.3-.5-1.4 0-1.9.2-1.2.5zm189 0c.6.2 1.8.2 2.5 0 .6-.3.1-.5-1.3-.5-1.4 0-1.9.2-1.2.5zm-152 1c3.4.2 8.8.2 12 0 3.1-.2.3-.3-6.3-.3s-9.2.1-5.7.3zm106.5 0c3.2.2 8.1.2 11 0 2.9-.2.3-.3-5.8-.3-6 0-8.4.1-5.2.3zm-241.5 10c.7.3 1.6.2 1.9-.1.4-.3-.2-.6-1.3-.5-1.1 0-1.4.3-.6.6zm32 1c.6.2 1.8.2 2.5 0 .6-.3.1-.5-1.3-.5-1.4 0-1.9.2-1.2.5zm111 2c2.3.2 5.9.2 8 0 2-.2.1-.4-4.3-.4-4.4 0-6.1.2-3.7.4zm56 0c1.7.2 4.7.2 6.5 0 1.7-.2.3-.4-3.3-.4-3.6 0-5 .2-3.2.4zm49.5 0c2 .2 5.4.2 7.5 0 2-.2.3-.4-3.8-.4s-5.8.2-3.7.4zm38.7 1.8c1.3 1.4 2.6 2.5 2.8 2.5.3 0-.5-1.1-1.8-2.5s-2.6-2.5-2.8-2.5c-.3 0 .5 1.1 1.8 2.5zm-232.9.1c0 1.1.3 1.4.6.6.3-.7.2-1.6-.1-1.9-.3-.4-.6.2-.5 1.3zm296.4.4-4 .7 3.7.2c2 0 4-.4 4.3-.9.3-.6.5-.9.3-.9-.2.1-2.1.5-4.3.9zm7.9 4.2-1.9 2.3 2.3-1.9c1.2-1.1 2.2-2.1 2.2-2.3 0-.8-.8-.2-2.6 1.9zm-114.1 3.3c0 2.7.2 3.8.4 2.2.2-1.5.2-3.7 0-5-.2-1.2-.4 0-.4 2.8zm-45.5-1.8c1.7.2 4.7.2 6.5 0 1.7-.2.3-.4-3.3-.4-3.6 0-5 .2-3.2.4zm-60.7 12.9c0 1.1.3 1.4.6.6.3-.7.2-1.6-.1-1.9-.3-.4-.6.2-.5 1.3zm16.1 1.4c0 1.4.2 1.9.5 1.2.2-.6.2-1.8 0-2.5-.3-.6-.5-.1-.5 1.3zM65 213c-.9.6-1 1-.3 1 .6 0 1.5-.5 1.8-1 .8-1.2.4-1.2-1.5 0zm233.3-.3c.9.2 2.5.2 3.5 0 .9-.3.1-.5-1.8-.5-1.9 0-2.7.2-1.7.5zm-138 12c.9.2 2.3.2 3 0 .6-.3-.1-.5-1.8-.5-1.6 0-2.2.2-1.2.5zm-40.5 1c1.7.2 4.7.2 6.5 0 1.7-.2.3-.4-3.3-.4-3.6 0-5 .2-3.2.4zm-70.5 4c.9.2 2.3.2 3 0 .6-.3-.1-.5-1.8-.5-1.6 0-2.2.2-1.2.5zm299.5 0c.7.3 1.6.2 1.9-.1.4-.3-.2-.6-1.3-.5-1.1 0-1.4.3-.6.6z"/></svg>